<svg width="168" height="147" viewBox="0 0 168 147" fill="none" xmlns="http://www.w3.org/2000/svg">
<path fill-rule="evenodd" clip-rule="evenodd" d="M21.1 140.3H32.57C32.1926 139.893 31.9883 139.355 32 138.8V91.8C32 91.2298 32.2265 90.6829 32.6297 90.2797C33.0329 89.8765 33.5798 89.65 34.15 89.65H124.25C124.819 89.6526 125.365 89.88 125.767 90.2826C126.17 90.6853 126.397 91.2306 126.4 91.8V138.8C126.396 139.36 126.178 139.896 125.79 140.3H137.79C138.612 140.3 139.401 140.627 139.982 141.208C140.563 141.789 140.89 142.578 140.89 143.4C140.89 144.222 140.563 145.011 139.982 145.592C139.401 146.173 138.612 146.5 137.79 146.5H21.1C20.2778 146.5 19.4893 146.173 18.908 145.592C18.3266 145.011 18 144.222 18 143.4C18 142.578 18.3266 141.789 18.908 141.208C19.4893 140.627 20.2778 140.3 21.1 140.3ZM106.1 76H100V85.56H95.73V73.86C95.7287 73.5786 95.7831 73.2997 95.8902 73.0395C95.9973 72.7793 96.1549 72.5428 96.3538 72.3438C96.5528 72.1449 96.7893 71.9873 97.0495 71.8802C97.3097 71.7731 97.5886 71.7187 97.87 71.72H106.13C106.653 70.3385 107.646 69.1855 108.935 68.4636C110.223 67.7418 111.725 67.4974 113.177 67.7733C114.628 68.0492 115.935 68.8278 116.869 69.9723C117.803 71.1168 118.304 72.5538 118.283 74.0308C118.262 75.5078 117.721 76.9302 116.756 78.048C115.79 79.1659 114.461 79.9075 113.003 80.1427C111.545 80.3778 110.05 80.0914 108.782 79.3337C107.514 78.576 106.554 77.3956 106.07 76H106.1ZM62 77.5V85.56H57.71V79.64H52.8C52.2956 81.0279 51.3183 82.1937 50.0397 82.9325C48.7611 83.6713 47.263 83.9359 45.8087 83.6799C44.3543 83.4238 43.0368 82.6634 42.0874 81.5323C41.1381 80.4012 40.6177 78.9717 40.6177 77.495C40.6177 76.0183 41.1381 74.5888 42.0874 73.4577C43.0368 72.3266 44.3543 71.5662 45.8087 71.3101C47.263 71.0541 48.7611 71.3187 50.0397 72.0575C51.3183 72.7963 52.2956 73.9621 52.8 75.35H59.9C60.1809 75.3497 60.459 75.4053 60.7182 75.5135C60.9774 75.6216 61.2126 75.7802 61.41 75.98C61.7986 76.3895 62.0105 76.9355 62 77.5ZM51.06 54C49.9287 54.0004 48.8185 54.3064 47.8468 54.8856C46.875 55.4648 46.0778 56.2958 45.5393 57.2907C45.0008 58.2856 44.741 59.4075 44.7875 60.5379C44.8339 61.6682 45.1848 62.765 45.8032 63.7124C46.4215 64.6598 47.2842 65.4225 48.3002 65.92C49.3163 66.4176 50.4478 66.6314 51.5753 66.539C52.7028 66.4466 53.7844 66.0513 54.7058 65.3949C55.6272 64.7385 56.3542 63.8454 56.81 62.81H69.37V85.56H73.65V60.68C73.6527 60.3978 73.5992 60.1178 73.4927 59.8564C73.3862 59.595 73.2289 59.3574 73.0297 59.1574C72.8306 58.9573 72.5937 58.7988 72.3328 58.6911C72.0719 58.5834 71.7922 58.5287 71.51 58.53H57.09C56.7139 57.2279 55.9259 56.0827 54.8443 55.266C53.7626 54.4493 52.4454 54.0051 51.09 54H51.06ZM85.85 54.1C84.3699 54.0962 82.9361 54.6152 81.8014 55.5655C80.6668 56.5158 79.9042 57.8363 79.6483 59.2941C79.3924 60.7519 79.6595 62.2532 80.4027 63.5332C81.1458 64.8131 82.3171 65.7895 83.71 66.29V85.56H88V66.29C89.3937 65.7892 90.5656 64.812 91.3086 63.531C92.0517 62.25 92.3182 60.7476 92.061 59.2892C91.8037 57.8307 91.0394 56.5101 89.9029 55.5606C88.7664 54.6111 87.3309 54.0938 85.85 54.1ZM69.12 102C69.1148 100.076 69.6558 98.1892 70.68 96.56H88.2C89.2252 98.1888 89.7663 100.075 89.76 102C89.76 104.737 88.6727 107.362 86.7373 109.297C84.802 111.233 82.177 112.32 79.44 112.32C76.703 112.32 74.078 111.233 72.1427 109.297C70.2073 107.362 69.12 104.737 69.12 102ZM109.23 102.39V104.55C109.227 105.523 108.84 106.456 108.153 107.146C107.465 107.835 106.533 108.225 105.56 108.23H101.79C101.32 110.327 100.555 112.347 99.52 114.23L102 116.69C102.686 117.38 103.071 118.313 103.071 119.285C103.071 120.258 102.686 121.19 102 121.88L99 124.94C98.3088 125.626 97.3741 126.012 96.4 126.012C95.4259 126.012 94.4912 125.626 93.8 124.94L91.51 122.65C89.5864 123.853 87.493 124.759 85.3 125.34V128.46C85.2948 129.434 84.9053 130.367 84.2163 131.056C83.5273 131.745 82.5944 132.135 81.62 132.14H77.28C76.3056 132.135 75.3726 131.745 74.6837 131.056C73.9947 130.367 73.6053 129.434 73.6 128.46V125.38C71.3874 124.811 69.2735 123.911 67.33 122.71L65.1 124.94C64.4105 125.626 63.4775 126.011 62.505 126.011C61.5325 126.011 60.5995 125.626 59.91 124.94L56.85 121.88C56.1642 121.19 55.7793 120.258 55.7793 119.285C55.7793 118.313 56.1642 117.38 56.85 116.69L59.25 114.28C58.1869 112.373 57.4055 110.321 56.93 108.19H53.32C52.3466 108.185 51.4146 107.795 50.7272 107.106C50.0398 106.416 49.6526 105.483 49.65 104.51V100.18C49.654 99.2379 50.0192 98.3331 50.6703 97.6522C51.3215 96.9713 52.209 96.5661 53.15 96.52H65.46C64.872 98.1423 64.5708 99.8545 64.57 101.58C64.57 101.84 64.57 102.09 64.57 102.35C64.57 102.61 64.57 102.86 64.57 103.11C64.57 107.033 66.1282 110.794 68.9019 113.568C71.6756 116.342 75.4374 117.9 79.36 117.9C83.2826 117.9 87.0444 116.342 89.8181 113.568C92.5918 110.794 94.15 107.033 94.15 103.11C94.15 102.86 94.15 102.6 94.15 102.35C94.15 102.1 94.15 101.84 94.15 101.58C94.1492 99.8545 93.848 98.1423 93.26 96.52H105.73C106.671 96.5661 107.559 96.9713 108.21 97.6522C108.861 98.3331 109.226 99.2379 109.23 100.18V102.35V102.39ZM35.64 93H123V138.2H35.64V93ZM75.9 141.83H83C83.3089 141.837 83.6032 141.963 83.8226 142.18C84.042 142.398 84.1699 142.691 84.18 143C84.184 143.159 84.1566 143.317 84.0995 143.465C84.0423 143.614 83.9565 143.749 83.8469 143.864C83.7373 143.98 83.6061 144.072 83.4608 144.137C83.3155 144.201 83.1589 144.236 83 144.24H75.9C75.7394 144.239 75.5806 144.205 75.433 144.142C75.2854 144.079 75.1518 143.987 75.0401 143.871C74.9284 143.756 74.8408 143.62 74.7824 143.47C74.724 143.32 74.696 143.161 74.7 143C74.7 142.682 74.8264 142.377 75.0515 142.151C75.2765 141.926 75.5817 141.8 75.9 141.8V141.83Z" fill="#2e8555"/>
<path d="M118.064 48.8699C117.025 49.375 116 49.921 114.974 50.5216C111.898 52.3234 108.863 54.521 105.759 57.0462L99.1551 49.4842C101.438 47.3684 103.913 45.4438 106.538 43.7376C108.63 42.3726 110.818 41.1578 113.074 40.1204C113.976 39.6699 114.879 39.2468 115.808 38.8509C111.447 31.1388 105.171 25.6106 98.0613 22.1981C90.9515 18.7993 82.994 17.4889 75.2416 18.2396C67.5439 18.9767 60.065 21.7749 53.8849 26.566C46.7478 32.0942 41.3061 40.3661 39.2141 51.3269L38.5715 54.753L35.1534 55.3536C31.8035 55.9406 28.8229 56.7459 26.1841 57.7696C23.641 58.7524 21.3713 59.9673 19.3888 61.4005C17.8027 62.5471 16.4355 63.8302 15.2733 65.2225C11.6637 69.5222 9.99564 74.9139 10.0367 80.3602C10.0777 85.902 11.8825 91.4985 15.2186 96.1121C16.4491 97.8184 17.8984 99.3881 19.5392 100.753C21.2072 102.132 23.0804 103.278 25.186 104.138C26.8951 104.834 28.7545 105.38 30.7781 105.749V115.891C27.3463 115.413 24.2152 114.58 21.3713 113.407C18.2676 112.123 15.5194 110.472 13.0993 108.452C10.8023 106.541 8.79244 104.37 7.08336 102.009C2.51668 95.7163 0.0556018 88.0451 0.000911062 80.4011C-0.0537796 72.6753 2.35261 64.9904 7.54823 58.7661C9.22997 56.7459 11.2125 54.8895 13.4822 53.2515C16.121 51.3406 19.1427 49.7299 22.5471 48.4058C24.8988 47.4913 27.4146 46.7269 30.0671 46.1127C33.0751 34.1963 39.4876 24.9963 47.7322 18.6082C55.4436 12.6432 64.7274 9.16247 74.2846 8.24793C83.8007 7.33338 93.5904 8.94407 102.382 13.1619C111.98 17.7619 120.348 25.4195 125.776 36.1892C127.963 35.848 130.151 35.6842 132.325 35.6978C141.513 35.7524 150.359 39.042 157.346 46.5495C158.809 48.1192 160.19 49.8937 161.475 51.8729C165.85 58.5886 168.093 67.5566 167.997 76.3335C167.901 84.9465 165.577 93.5187 160.819 99.8249C157.729 103.947 153.736 107.291 148.965 109.953C144.371 112.519 139.011 114.471 132.995 115.863L131.874 116H127.389V105.94H131.341C136.167 104.78 140.433 103.21 144.056 101.19C147.652 99.1834 150.592 96.74 152.793 93.8053C156.211 89.2599 157.893 82.8308 157.961 76.2379C158.043 69.3174 156.348 62.3833 153.053 57.3192C152.109 55.8587 151.07 54.5483 149.976 53.3744C145.041 48.0646 138.779 45.7441 132.27 45.7032C127.567 45.7032 122.686 46.8225 118.064 48.8699Z" fill="#2e8555"/>
</svg>
